{"title":"Mega Shark vs. Kolossus 2015 HDRip XviD AC3-MenaceIISociety","uid":12160358,"size":1192103166,"categoryP":"video","categoryS":"movies","magnet":"?xt=urn:btih:642cdf66b7a70c2f668c1a1172d1088b541e16ad&amp;dn=Mega+Shark+vs.+Kolossus+2015+HDRip+XviD+AC3-MenaceIISociety&amp;tr=udp%3A%2F%2Ftracker.openbittorrent.com%3A80&amp;tr=udp%3A%2F%2Fopen.demonii.com%3A1337&amp;tr=udp%3A%2F%2Ftracker.coppersurfer.tk%3A6969&amp;tr=udp%3A%2F%2Fexodus.desync.com%3A6969","seeders":0,"leechers":0,"uploader":"TvTeam","files":4,"time":1437893045,"description":"------------------------------------------------------------------------\n\n &lt;a href=&quot; https://www.torrenting.com&quot; rel=&quot;nofollow&quot; target=&quot;_NEW&quot;&gt; https://www.torrenting.com&lt;/a&gt;\n\nSign up is OPEN - for time being. Come and have fun\n\n.......................................................................................................................[img]http://s18.postimg.org/fa97x5hdl/4_317_AL.jpg[/img]\n\nMega Shark vs. Kolossus 2015 HDRip XviD AC3-MenaceIISociety &lt;a href=&quot;\nhttp://www.imdb.com/title/tt4566574/&quot; rel=&quot;nofollow&quot; target=&quot;_NEW&quot;&gt;\nhttp://www.imdb.com/title/tt4566574/&lt;/a&gt;\n\nSource: Pyre8Storm [THANKS]\n\nNOTE: resized and stuck a blur over the syfy logo bottom right, enjoy :)\n\nGeneral\nComplete name                            : Mega Shark vs. Kolossus 2015 HDRip XviD AC3-MenaceIISociety.avi\nFormat                                   : AVI\nFormat/Info                              : Audio Video Interleave\nFile size                                : 1.08 GiB\nDuration                                 : 1h 25mn\nOverall bit rate                         : 1 811 Kbps\n\nVideo\nID                                       : 0\nFormat                                   : MPEG-4 Visual\nFormat profile                           : Advanced Simple@L5\nFormat settings, BVOP                    : 2\nFormat settings, QPel                    : No\nFormat settings, GMC                     : No warppoints\nFormat settings, Matrix                  : Default (H.263)\nMuxing mode                              : Packed bitstream\nCodec ID                                 : XVID\nCodec ID/Hint                            : XviD\nDuration                                 : 1h 25mn\nBit rate                                 : 1 419 Kbps\nWidth                                    : 720 pixels\nHeight                                   : 400 pixels\nDisplay aspect ratio                     : 16:9\nFrame rate                               : 25.000 fps\nColor space                              : YUV\nChroma subsampling                       : 4:2:0\nBit depth                                : 8 bits\nScan type                                : Progressive\nCompression mode                         : Lossy\nBits/(Pixel*Frame)                       : 0.197\nStream size                              : 865 MiB (78%)\nWriting library                          : XviD 64\n\nAudio\nID                                       : 1\nFormat                                   : AC-3\nFormat/Info                              : Audio Coding 3\nMode extension                           : CM (complete main)\nFormat settings, Endianness              : Big\nCodec ID                                 : 2000\nDuration                                 : 1h 25mn\nBit rate mode                            : Constant\nBit rate                                 : 384 Kbps\nChannel(s)                               : 2 channels\nChannel positions                        : Front: L R\nSampling rate                            : 48.0 KHz\nCompression mode                         : Lossy\nStream size                              : 234 MiB (21%)\nAlignment                                : Aligned on interleaves\nInterleave, duration                     : 64 ms (1.60 video frames)\nInterleave, preload duration             : 192 ms\n\n[img]http://s8.postimg.org/dstf0tbmd/vlcsnap_2015_07_26_02h08m11s662.jpg[/img]\n[img]http://s8.postimg.org/j5musoowl/vlcsnap_2015_07_26_02h08m33s753.jpg[/img]\n[img]http://s8.postimg.org/lo8jtdamt/vlcsnap_2015_07_26_02h09m31s287.jpg[/img]\n[img]http://s8.postimg.org/kagwy2bdh/vlcsnap_2015_07_26_02h09m41s108.jpg[/img]\n[img]http://s8.postimg.org/6utw8m2vp/vlcsnap_2015_07_26_02h09m51s123.jpg[/img] \n\n[img]http://i.imgur.com/AZ2S1Eo.gif[/img]\n\n[img]http://s17.postimg.org/r1iiyw8yn/Untitled_1.png[/img]","torrent":{"xt":"urn:btih:642cdf66b7a70c2f668c1a1172d1088b541e16ad","amp;dn":"Mega+Shark+vs.+Kolossus+2015+HDRip+XviD+AC3-MenaceIISociety","amp;tr":["udp%3A%2F%2Ftracker.openbittorrent.com%3A80","udp%3A%2F%2Fopen.demonii.com%3A1337","udp%3A%2F%2Ftracker.coppersurfer.tk%3A6969","udp%3A%2F%2Fexodus.desync.com%3A6969"],"infoHash":"642cdf66b7a70c2f668c1a1172d1088b541e16ad","infoHashBuffer":{"type":"Buffer","data":[100,44,223,102,183,167,12,47,102,140,26,17,114,209,8,139,84,30,22,173]},"announce":[],"urlList":[]}}